<?xml version="1.0"?>
<svg xmlns="http://www.w3.org/2000/svg" xmlns:xlink="http://www.w3.org/1999/xlink" xmlns:svgjs="http://svgjs.com/svgjs" version="1.1" width="512" height="512" x="0" y="0" viewBox="0 0 512 512" style="enable-background:new 0 0 512 512" xml:space="preserve"><g><g xmlns="http://www.w3.org/2000/svg"><path d="m347.829 38.679h-76.829v-38.679h-30v38.679h-76.829v42.815h183.658z" fill="#f78536" data-original="#000000" style=""/><path d="m392.647 482v-370.506h-273.294v370.506h-68.065v30h409.424v-30zm-153.458-332.885h33.622v30h-33.622zm0 67.62h33.622v30h-33.622zm0 67.621h33.622v30h-33.622zm-84.403-135.241h33.622v30h-33.622zm0 67.62h33.622v30h-33.622zm0 67.621h33.622v30h-33.622zm200.618 197.644h-30v-96.485h-54.404v96.485h-30v-96.485h-54.404v96.485h-30v-126.485h198.808zm1.811-167.644h-33.622v-30h33.622zm0-67.621h-33.622v-30h33.622zm0-67.62h-33.622v-30h33.622z" fill="#f78536" data-original="#000000" style=""/></g></g></svg>
