<?xml version="1.0"?>
<svg xmlns="http://www.w3.org/2000/svg" xmlns:xlink="http://www.w3.org/1999/xlink" xmlns:svgjs="http://svgjs.com/svgjs" version="1.1" width="512" height="512" x="0" y="0" viewBox="0 0 512 512" style="enable-background:new 0 0 512 512" xml:space="preserve"><g><path xmlns="http://www.w3.org/2000/svg" d="m50 336v32h24.025a62.035 62.035 0 0 1 -1.977-15.548 66.2 66.2 0 0 1 2.235-16.452z" fill="#ffffff" data-original="#000000" style=""/><path xmlns="http://www.w3.org/2000/svg" d="m134 334.534a18.324 18.324 0 1 0 18.323 18.323 18.343 18.343 0 0 0 -18.323-18.323z" fill="#ffffff" data-original="#000000" style=""/><path xmlns="http://www.w3.org/2000/svg" d="m50 199h-13.234c-8.266 0-14.766 7.12-14.766 15.391v69.787a14.667 14.667 0 0 0 14.766 14.822h13.234z" fill="#ffffff" data-original="#000000" style=""/><path xmlns="http://www.w3.org/2000/svg" d="m134 300.9a51.953 51.953 0 1 0 51.952 51.952 52.011 52.011 0 0 0 -51.952-51.952zm0 80.276a28.324 28.324 0 1 1 28.323-28.324 28.355 28.355 0 0 1 -28.323 28.329z" fill="#ffffff" data-original="#000000" style=""/><path xmlns="http://www.w3.org/2000/svg" d="m227 107h-69v21.939l69 .229z" fill="#ffffff" data-original="#000000" style=""/><path xmlns="http://www.w3.org/2000/svg" d="m287 107h-50v22.202l50 .166z" fill="#ffffff" data-original="#000000" style=""/><path xmlns="http://www.w3.org/2000/svg" d="m460 287h20v-21.146a15.007 15.007 0 0 0 .141-1.854h-20.141z" fill="#ffffff" data-original="#000000" style=""/><path xmlns="http://www.w3.org/2000/svg" d="m410 334.534a18.324 18.324 0 1 0 18.323 18.323 18.343 18.343 0 0 0 -18.323-18.323z" fill="#ffffff" data-original="#000000" style=""/><path xmlns="http://www.w3.org/2000/svg" d="m148 107h-50v21.739l50 .167z" fill="#ffffff" data-original="#000000" style=""/><path xmlns="http://www.w3.org/2000/svg" d="m193.717 336.4a61.905 61.905 0 0 1 .259 32h156.047a61.906 61.906 0 0 1 .261-32z" fill="#ffffff" data-original="#000000" style=""/><path xmlns="http://www.w3.org/2000/svg" d="m242 169v52h76.614l-23.649-52z" fill="#ffffff" data-original="#000000" style=""/><path xmlns="http://www.w3.org/2000/svg" d="m471.952 352.461a62.033 62.033 0 0 1 -1.975 15.539h20.023v-32h-20.285a66.2 66.2 0 0 1 2.237 16.461z" fill="#ffffff" data-original="#000000" style=""/><path xmlns="http://www.w3.org/2000/svg" d="m159 169h73v52h-73z" fill="#ffffff" data-original="#000000" style=""/><path xmlns="http://www.w3.org/2000/svg" d="m480 297h-21.167a8.708 8.708 0 0 1 -8.833-8.81v-25.333a8.748 8.748 0 0 1 8.833-8.857h18.328a24.984 24.984 0 0 0 -19.34-12.94l-97.921-10.271a5.005 5.005 0 0 1 -4.043-2.915l-33.323-73.754a25.083 25.083 0 0 0 -22.72-14.709l-214.5-.715a25.26 25.26 0 0 0 -25.314 25.004v162.3h17.993a61.931 61.931 0 0 1 112.013.353l163.994-.053a61.967 61.967 0 0 1 112-.3h14zm-395.5-66c-2.761 0-5.5-2.423-5.5-5.184v-61.341a5.873 5.873 0 0 1 5.5-5.475h213.667a5.253 5.253 0 0 1 4.541 3.169l28.255 61.6a5.123 5.123 0 0 1 -4.541 7.23zm145.581 80h-5.3a5 5 0 0 1 0-10h5.3a5 5 0 1 1 0 10zm116.029 0h-96.024a5 5 0 0 1 0-10h96.024a5 5 0 0 1 0 10z" fill="#ffffff" data-original="#000000" style=""/><path xmlns="http://www.w3.org/2000/svg" d="m410 300.9a51.953 51.953 0 1 0 51.952 51.952 52.011 52.011 0 0 0 -51.952-51.952zm0 80.276a28.324 28.324 0 1 1 28.323-28.324 28.355 28.355 0 0 1 -28.323 28.329z" fill="#ffffff" data-original="#000000" style=""/><path xmlns="http://www.w3.org/2000/svg" d="m89 169h60v52h-60z" fill="#ffffff" data-original="#000000" style=""/></g></svg>
